:SAMPLES-PER-SECOND 30
:FULLY-SPECIFIED
:DEGREES
726
root  11.2162 25.9719 -7.47264 -125.72 -17.039 91.5621
Spine  5.30884 5.41669 7.15949
Spine1  3.8182 -24.0388 -3.61987
Neck  3.97569e-016 0 -2.38542e-015
Head  16.8793 13.463 -3.78626
R_Clavicle  0.45288 -6.53109 2.36729
R_UpperArm  24.2544 20.1404 22.1711
R_Forearm  22.3291 -12.2757 10.3871
R_Hand  -0.644845 4.90503 -14.9191
L_Clavicle  -0.581512 20.9857 0.401847
L_UpperArm  -23.506 15.257 44.0134
L_Forearm  25.1595 44.2094 56.8486
L_Hand  0.775676 4.9888 8.56982
L_Thigh  -19.1391 -18.355 15.8684
L_Calf  -11.7487 1.55463 -11.1243
L_Foot  10.2174 19.9536 13.9174
L_Toe0  0.505172 0.034447 -6.1362
R_Thigh  11.7994 -1.05306 -21.4897
R_Calf  21.8309 -17.1161 -72.3675
R_Foot  1.41987 7.87908 20.0682
R_Toe0  -1.78853 -0.272788 -17.3235
727
root  10.5538 25.7434 -7.4309 -133.489 -17.4292 93.1244
Spine  6.46245 6.31747 6.27394
Spine1  4.67217 -24.9406 -3.79636
Neck  3.97569e-016 0 -2.38542e-015
Head  19.2801 12.7792 -2.74846
R_Clavicle  0.513635 -4.83962 2.73903
R_UpperArm  28.3905 21.0447 26.3217
R_Forearm  18.2646 -6.78183 5.63874
R_Hand  -0.252332 3.61034 -9.9193
L_Clavicle  -0.531267 19.5292 0.783648
L_UpperArm  -23.518 18.7746 45.6478
L_Forearm  27.464 43.326 56.6217
L_Hand  1.05996 4.94731 11.6451
L_Thigh  -20.8399 -16.8696 17.5227
L_Calf  -15.6782 1.56259 -11.1955
L_Foot  8.8658 18.2183 12.0376
L_Toe0  0.505279 0.0344472 -6.13623
R_Thigh  13.4919 -4.70716 -28.4753
R_Calf  18.9865 -17.2603 -74.1051
R_Foot  0.873598 6.64489 19.3919
R_Toe0  -1.78853 -0.272788 -17.3235
728
root  9.95632 26.0094 -6.94898 -139.177 -15.7908 94.7431
Spine  7.46243 7.1982 5.02078
Spine1  5.58897 -23.6339 -5.39741
Neck  3.97569e-016 0 -2.38542e-015
Head  20.9768 11.8042 0.103642
R_Clavicle  0.575585 -4.15022 3.09953
R_UpperArm  27.6382 19.3592 29.9167
R_Forearm  15.22 -1.65392 1.33975
R_Hand  0.0557038 2.30842 -4.46822
L_Clavicle  -0.506828 18.3567 0.689067
L_UpperArm  -22.3226 20.3657 46.4181
L_Forearm  26.9037 42.6944 53.7175
L_Hand  1.04094 4.89445 11.5105
L_Thigh  -21.3589 -13.8353 18.6759
L_Calf  -18.6315 1.22204 -8.61374
L_Foot  7.56268 17.7799 8.93506
L_Toe0  0.505297 0.0344469 -6.1362
R_Thigh  13.5687 -7.68889 -30.2876
R_Calf  15.1547 -16.5518 -66.9613
R_Foot  -0.34486 3.31962 15.0346
R_Toe0  -1.78853 -0.272788 -17.3235
729
root  9.25153 26.8724 -5.98429 -143.616 -13.1346 95.9919
Spine  7.94133 7.46704 3.56466
Spine1  6.16351 -21.0729 -6.83525
Neck  3.97569e-016 0 -2.38542e-015
Head  22.6947 11.7383 2.56129
R_Clavicle  0.538164 -4.71591 2.89302
R_UpperArm  23.7695 16.3132 32.3528
R_Forearm  13.7287 1.65643 -1.41411
R_Hand  0.212739 1.79549 -1.50208
L_Clavicle  -0.491806 17.57 0.461053
L_UpperArm  -20.8628 20.0012 45.5398
L_Forearm  22.9683 42.0891 49.5071
L_Hand  0.626027 3.68348 7.92402
L_Thigh  -21.0536 -9.86685 18.4943
L_Calf  -20.3372 0.285642 -1.79892
L_Foot  5.99054 19.4621 3.54355
L_Toe0  0.519435 0.0344441 -6.18683
R_Thigh  11.1887 -8.38591 -29.0578
R_Calf  10.8689 -14.5239 -53.3554
R_Foot  -1.06979 0.44734 10.4548
R_Toe0  -1.78853 -0.272788 -17.3235
730
root  8.32988 28.2204 -4.59583 -147.202 -10.0433 96.279
Spine  7.77962 7.21597 1.51523
Spine1  6.22454 -18.5323 -6.88519
Neck  3.97569e-016 0 -2.38542e-015
Head  24.3919 12.4246 3.59805
R_Clavicle  0.375597 -6.47593 1.82366
R_UpperArm  19.7848 12.1916 34.1301
R_Forearm  14.2123 1.92339 -1.63727
R_Hand  0.250427 1.69168 -0.798749
L_Clavicle  -0.47631 16.9148 0.337613
L_UpperArm  -20.5757 17.3497 42.7036
L_Forearm  18.196 41.2715 46.1421
L_Hand  0.243985 2.27771 3.59411
L_Thigh  -18.6566 -6.27772 17.3441
L_Calf  -16.7008 -1.37787 10.2926
L_Foot  2.84661 23.5597 -7.19216
L_Toe0  0.351428 0.036212 -5.72467
R_Thigh  6.93689 -6.7245 -26.2526
R_Calf  5.70326 -10.9701 -36.908
R_Foot  -0.877213 -0.24171 6.72041
R_Toe0  -1.85559 -0.271961 -17.3622
